<svg width="81" height="61" viewBox="0 0 81 61" fill="none" xmlns="http://www.w3.org/2000/svg">
<path d="M6.28876 0L4.0546 12.0247C3.09156 17.236 3.87502 22.6057 6.28876 27.3065H15.273V0H6.28876ZM18.3716 0V20.3522H18.8821C19.9737 20.3522 20.854 19.4543 20.854 18.3628V0H18.3716ZM23.9702 0V18.3628C23.9702 21.1621 21.699 23.4332 18.8821 23.4332H18.3716V37.8171H20.9948V27.3065H24.4455C24.4455 27.3065 25.7836 24.6128 26.8399 22.4297C27.6674 20.81 29.3223 19.7712 31.1533 19.7712H45.2731C47.914 19.7712 50.0619 21.9015 50.0619 24.5424V40.6516H0L1.86092 52.7115H75.5549L77.4035 41.6023L73.6887 0H23.9702ZM78.5655 4.11974C77.7028 4.19016 77.069 4.94721 77.1571 5.79228L77.9141 14.1374C77.9845 14.9825 78.7416 15.6163 79.5867 15.5459C80.4493 15.4754 81.0655 14.7008 80.9951 13.8557L80.2557 5.52819C80.1852 4.73594 79.5162 4.11974 78.724 4.11974H78.5655ZM63.2838 4.13734C67.1042 4.13734 70.1852 7.21834 70.1852 11.0388C70.1852 14.8592 67.1042 17.9402 63.2838 17.9402C59.4633 17.9402 56.3823 14.8592 56.3823 11.0388C56.3823 7.21834 59.4633 4.13734 63.2838 4.13734ZM63.2838 7.21834C61.1887 7.21834 59.4633 8.94371 59.4633 11.0388C59.4633 13.1515 61.1887 14.8592 63.2838 14.8592C65.3788 14.8592 67.1042 13.1515 67.1042 11.0388C67.1042 8.94371 65.3788 7.21834 63.2838 7.21834ZM63.2838 23.0459C67.9669 23.0459 71.7697 26.8663 71.7697 31.5318C71.7697 36.215 67.9669 40.0178 63.2838 40.0178C58.6006 40.0178 54.7978 36.215 54.7978 31.5318C54.7978 26.8663 58.6006 23.0459 63.2838 23.0459ZM63.2838 26.1445C60.3084 26.1445 57.8964 28.5565 57.8964 31.5318C57.8964 34.5072 60.3084 36.9016 63.2838 36.9016C66.2591 36.9016 68.6535 34.5072 68.6535 31.5318C68.6535 28.5565 66.2591 26.1445 63.2838 26.1445ZM11.7536 29.5776V32.6762H15.2906V29.5776H11.7536ZM1.86092 56.1798V60.8454H75.5197V56.1798H1.86092Z" fill="#563B69"/>
</svg>
