<svg width="18" height="18" viewBox="0 0 18 18" fill="none" xmlns="http://www.w3.org/2000/svg">
<mask id="mask0_0_58" style="mask-type:alpha" maskUnits="userSpaceOnUse" x="0" y="0" width="18" height="18">
<rect width="18" height="18" fill="#D9D9D9"/>
</mask>
<g mask="url(#mask0_0_58)">
<path d="M9 15.7508L7.9125 14.7758C6.65 13.6383 5.60625 12.657 4.78125 11.832C3.95625 11.007 3.3 10.2664 2.8125 9.61016C2.325 8.95391 1.98438 8.35078 1.79063 7.80078C1.59688 7.25078 1.5 6.68828 1.5 6.11328C1.5 4.93828 1.89375 3.95703 2.68125 3.16953C3.46875 2.38203 4.45 1.98828 5.625 1.98828C6.275 1.98828 6.89375 2.12578 7.48125 2.40078C8.06875 2.67578 8.575 3.06328 9 3.56328C9.425 3.06328 9.93125 2.67578 10.5188 2.40078C11.1063 2.12578 11.725 1.98828 12.375 1.98828C13.55 1.98828 14.5313 2.38203 15.3188 3.16953C16.1063 3.95703 16.5 4.93828 16.5 6.11328C16.5 6.68828 16.4031 7.25078 16.2094 7.80078C16.0156 8.35078 15.675 8.95391 15.1875 9.61016C14.7 10.2664 14.0437 11.007 13.2188 11.832C12.3938 12.657 11.35 13.6383 10.0875 14.7758L9 15.7508ZM9 13.7258C10.2 12.6508 11.1875 11.7289 11.9625 10.9602C12.7375 10.1914 13.35 9.52266 13.8 8.95391C14.25 8.38516 14.5625 7.87891 14.7375 7.43516C14.9125 6.99141 15 6.55078 15 6.11328C15 5.36328 14.75 4.73828 14.25 4.23828C13.75 3.73828 13.125 3.48828 12.375 3.48828C11.7875 3.48828 11.2437 3.65391 10.7437 3.98516C10.2437 4.31641 9.9 4.73828 9.7125 5.25078H8.2875C8.1 4.73828 7.75625 4.31641 7.25625 3.98516C6.75625 3.65391 6.2125 3.48828 5.625 3.48828C4.875 3.48828 4.25 3.73828 3.75 4.23828C3.25 4.73828 3 5.36328 3 6.11328C3 6.55078 3.0875 6.99141 3.2625 7.43516C3.4375 7.87891 3.75 8.38516 4.2 8.95391C4.65 9.52266 5.2625 10.1914 6.0375 10.9602C6.8125 11.7289 7.8 12.6508 9 13.7258Z" fill="#AE90C2"/>
</g>
</svg>
